HIERARCHY
ROOT Hips
{
	OFFSET 0.000000 0.000000 0.000000 
	CHANNELS 6 Xposition Yposition Zposition Zrotation Xrotation Yrotation
	JOINT LeftUpLeg
	{
		OFFSET 2.390000 -0.997500 0.003131 
		CHANNELS 3 Zrotation Xrotation Yrotation
		JOINT LeftUpLegRoll
		{
			OFFSET -0.008228 -5.368025 -0.050000 
			CHANNELS 3 Zrotation Xrotation Yrotation
			JOINT LeftLeg
			{
				OFFSET 0.008228 -5.304475 -0.040000 
				CHANNELS 3 Zrotation Xrotation Yrotation
				JOINT LeftLegRoll
				{
					OFFSET 0.008266 -8.023550 -0.789272 
					CHANNELS 3 Zrotation Xrotation Yrotation
					JOINT LeftFoot
					{
						OFFSET -0.008285 -2.447005 -0.176461 
						CHANNELS 3 Zrotation Xrotation Yrotation
						End Site
						{
							OFFSET -0.006362 -1.603547 3.533050 
						}
					}
				}
			}
		}
	}
	JOINT RightUpLeg
	{
		OFFSET -2.390000 -0.997500 0.003131 
		CHANNELS 3 Zrotation Xrotation Yrotation
		JOINT RightUpLegRoll
		{
			OFFSET 0.007500 -5.367500 -0.050000 
			CHANNELS 3 Zrotation Xrotation Yrotation
			JOINT RightLeg
			{
				OFFSET -0.007500 -5.305000 -0.040000 
				CHANNELS 3 Zrotation Xrotation Yrotation
				JOINT RightLegRoll
				{
					OFFSET 0.005000 -8.024050 -0.790258 
					CHANNELS 3 Zrotation Xrotation Yrotation
					JOINT RightFoot
					{
						OFFSET 0.020000 -2.446472 -0.175476 
						CHANNELS 3 Zrotation Xrotation Yrotation
						End Site
						{
							OFFSET 0.010000 -1.603528 3.533050 
						}
					}
				}
			}
		}
	}
	JOINT Spine
	{
		OFFSET 0.000211 2.856775 0.095838 
		CHANNELS 3 Zrotation Xrotation Yrotation
		JOINT Spine1
		{
			OFFSET 0.000000 3.491675 -0.016748 
			CHANNELS 3 Zrotation Xrotation Yrotation
			JOINT Spine2
			{
				OFFSET 0.000000 2.811225 -0.017190 
				CHANNELS 3 Zrotation Xrotation Yrotation
				JOINT Spine3
				{
					OFFSET 0.000000 3.297825 -0.158152 
					CHANNELS 3 Zrotation Xrotation Yrotation
					JOINT LeftShoulder
					{
						OFFSET 2.247500 -0.945430 -0.255617 
						CHANNELS 3 Zrotation Xrotation Yrotation
						JOINT LeftArm
						{
							OFFSET 2.422500 0.192500 0.242500 
							CHANNELS 3 Zrotation Xrotation Yrotation
							JOINT LeftArmRoll
							{
								OFFSET 3.011150 -0.056125 -0.149282 
								CHANNELS 3 Zrotation Xrotation Yrotation
								JOINT LeftForeArm
								{
									OFFSET 3.544950 0.021691 -0.254337 
									CHANNELS 3 Zrotation Xrotation Yrotation
									JOINT LeftForeArmRoll
									{
										OFFSET 3.242425 0.024099 -0.017220 
										CHANNELS 3 Zrotation Xrotation Yrotation
										End Site
										{
											OFFSET 3.371325 0.031393 -0.007218 
										}
									}
								}
							}
						}
					}
					JOINT RightShoulder
					{
						OFFSET -2.247500 -0.945430 -0.255617 
						CHANNELS 3 Zrotation Xrotation Yrotation
						JOINT RightArm
						{
							OFFSET -2.422500 0.192500 0.242500 
							CHANNELS 3 Zrotation Xrotation Yrotation
							JOINT RightArmRoll
							{
								OFFSET -3.062100 -0.062702 -0.132500 
								CHANNELS 3 Zrotation Xrotation Yrotation
								JOINT RightForeArm
								{
									OFFSET -3.498150 0.035499 -0.338573 
									CHANNELS 3 Zrotation Xrotation Yrotation
									JOINT RightForeArmRoll
									{
										OFFSET -3.278950 0.026904 0.120309 
										CHANNELS 3 Zrotation Xrotation Yrotation
										End Site
										{
											OFFSET -3.349925 0.018716 0.058049 
										}
									}
								}
							}
						}
					}
					JOINT Neck
					{
						OFFSET 0.000000 1.108613 -0.101302 
						CHANNELS 3 Zrotation Xrotation Yrotation
						End Site
						{
							OFFSET 0.000000 1.617325 0.410885 
						}
					}
				}
			}
		}
	}
}
MOTION
Frames: 12
Frame Time: 0.041667
-1.100360 23.695576 -8.033625 0.155431 -0.005744 6.990410 -8.798450 -21.180700 -18.189501 0.000000 -0.000000 0.000000 -0.902914 8.632450 0.226620 0.000000 -0.000000 0.000000 0.666201 10.161800 -0.686324 11.269300 18.380100 -7.788180 0.000000 0.000000 0.000000 -2.192070 -4.923240 0.089417 -0.000000 0.000000 0.000000 3.363050 -10.526900 3.604620 -0.634902 0.012761 1.645510 -0.000000 0.000000 -0.000000 0.000000 0.000000 -0.000000 0.000000 -0.000000 0.000000 -12.982000 0.011556 2.881480 -79.783302 42.130699 34.809799 0.000000 -0.000000 0.000000 -0.798085 -17.230301 -12.565200 -0.000000 0.000000 -0.000000 12.356800 0.245589 1.973380 67.038696 48.296600 -7.933200 -0.000000 0.000000 0.000000 -6.239440 -18.323700 13.109800 -0.000000 0.000000 0.000000 0.000000 0.000000 0.000000 
-0.994170 23.522200 -7.083825 1.043050 0.001649 7.000120 -10.522300 -19.036400 -12.715100 0.000000 -0.000000 0.000000 -0.080544 -0.262320 0.061942 0.000000 -0.000000 0.000000 -5.674030 13.650300 -1.163850 10.084100 19.812000 -7.269250 0.000000 0.000000 0.000000 -1.823890 -2.751540 0.231030 -0.000000 0.000000 0.000000 3.473780 -11.544900 3.799260 -0.165107 -0.090066 1.713590 -0.000000 0.000000 -0.000000 0.000000 0.000000 -0.000000 0.000000 -0.000000 0.000000 -13.136600 0.038868 3.078890 -79.378998 40.222599 35.858200 0.000000 -0.000000 0.000000 -1.289800 -17.254499 -11.864700 -0.000000 0.000000 -0.000000 11.612000 0.187823 2.407710 66.363701 48.094799 -6.224330 -0.000000 0.000000 0.000000 -5.665420 -18.503599 12.677100 -0.000000 0.000000 0.000000 0.000000 0.000000 0.000000 
-0.908330 23.345924 -6.076300 1.718570 0.037322 6.871210 -12.464300 -17.848000 -7.758750 0.000000 -0.000000 0.000000 0.081729 -1.238790 0.014498 0.000000 -0.000000 0.000000 -6.615990 12.660800 -1.302600 9.029880 21.184099 -6.280950 0.000000 0.000000 0.000000 -1.350330 0.142353 0.322292 -0.000000 0.000000 0.000000 3.510360 -12.261800 3.822430 0.072468 -0.233143 1.723260 -0.000000 0.000000 -0.000000 0.000000 0.000000 -0.000000 0.000000 -0.000000 0.000000 -13.272800 0.081606 3.362710 -79.226898 38.418499 37.084202 0.000000 -0.000000 0.000000 -1.135120 -16.257999 -10.853100 -0.000000 0.000000 -0.000000 11.360500 0.169082 2.520860 66.121399 47.956902 -5.304890 -0.000000 0.000000 0.000000 -5.327000 -18.640800 12.471000 -0.000000 0.000000 0.000000 0.000000 0.000000 0.000000 
-0.818097 23.288250 -5.008675 2.951130 0.218635 6.547770 -14.133500 -15.508700 -6.716950 0.000000 -0.000000 0.000000 0.046997 -1.027730 -0.001636 0.000000 -0.000000 0.000000 -3.312220 9.480120 -1.261700 6.907490 22.276199 -3.777090 0.000000 0.000000 0.000000 -0.646383 2.847860 0.319058 -0.000000 0.000000 0.000000 3.519490 -11.218800 3.265530 0.063593 -0.401992 1.668680 -0.000000 0.000000 -0.000000 0.000000 0.000000 -0.000000 0.000000 -0.000000 0.000000 -13.547700 0.121214 3.668800 -78.497498 36.642502 37.950500 0.000000 -0.000000 0.000000 -0.795973 -14.800900 -9.897280 -0.000000 0.000000 -0.000000 11.846100 0.198609 2.394500 66.115097 47.346600 -5.084130 -0.000000 0.000000 0.000000 -5.400630 -18.366301 12.318300 -0.000000 0.000000 0.000000 0.000000 0.000000 0.000000 
-0.702040 23.392426 -3.962325 5.165420 0.588248 6.417960 -16.145300 -12.505500 -7.139720 0.000000 -0.000000 0.000000 0.088120 -1.248850 -0.080061 0.000000 -0.000000 0.000000 -2.883210 6.708790 -1.443060 3.777150 22.390699 0.291665 0.000000 0.000000 0.000000 0.340231 6.974230 0.225548 -0.000000 0.000000 0.000000 3.336160 -7.359760 2.167870 0.090177 -0.627617 1.522380 -0.000000 0.000000 -0.000000 0.000000 0.000000 -0.000000 0.000000 -0.000000 0.000000 -13.999100 0.118076 3.733710 -77.294800 35.215900 38.265301 0.000000 -0.000000 0.000000 -0.935165 -14.186400 -8.911600 -0.000000 0.000000 -0.000000 13.138200 0.253084 2.184000 66.875000 46.713402 -5.741100 -0.000000 0.000000 0.000000 -5.623800 -18.317101 12.493600 -0.000000 0.000000 0.000000 0.000000 0.000000 0.000000 
-0.607697 23.590799 -2.950925 5.831310 0.475979 6.823080 -16.418699 -9.510100 -6.655420 0.000000 -0.000000 0.000000 0.174974 -1.656660 -0.233818 0.000000 -0.000000 0.000000 -5.372360 3.926790 -2.192440 2.470190 21.577700 3.696100 0.000000 0.000000 0.000000 1.518250 12.413800 -0.005028 -0.000000 0.000000 0.000000 3.662140 -3.090050 1.126840 0.501626 -0.805699 1.238580 -0.000000 0.000000 -0.000000 0.000000 0.000000 -0.000000 0.000000 -0.000000 0.000000 -14.138800 0.095717 3.634180 -76.576599 34.569901 38.163300 0.000000 -0.000000 0.000000 -0.989419 -14.283700 -8.967310 -0.000000 0.000000 -0.000000 13.669500 0.289858 1.986080 68.966797 47.055698 -7.376320 -0.000000 0.000000 0.000000 -5.832810 -18.757401 13.015400 -0.000000 0.000000 0.000000 0.000000 0.000000 0.000000 
-0.536255 23.747351 -1.996088 5.398900 0.653219 6.945180 -15.832600 -7.068650 -5.297620 0.000000 -0.000000 0.000000 0.210639 -1.902030 -0.435319 0.000000 -0.000000 0.000000 -5.879550 1.798130 -2.577530 1.413290 17.781000 6.734510 0.000000 0.000000 0.000000 4.142230 20.684299 -0.784492 -0.000000 0.000000 0.000000 5.776890 1.088250 0.684953 1.532560 -1.145100 0.708941 -0.000000 0.000000 -0.000000 0.000000 0.000000 -0.000000 0.000000 -0.000000 0.000000 -14.120900 0.074212 3.500570 -77.305801 35.099098 38.460098 0.000000 -0.000000 0.000000 -0.687846 -15.171800 -10.249500 -0.000000 0.000000 -0.000000 13.691300 0.307933 1.776070 70.840897 48.481899 -8.845370 -0.000000 0.000000 0.000000 -6.143630 -19.075701 13.555600 -0.000000 0.000000 0.000000 0.000000 0.000000 0.000000 
-0.476723 23.851549 -1.075030 4.837870 0.071609 6.722000 -15.057800 -3.981180 -3.579600 0.000000 -0.000000 0.000000 0.193136 -1.895560 -0.649716 0.000000 -0.000000 0.000000 -5.210650 -0.782541 -2.711380 -1.083060 12.907200 9.655280 0.000000 0.000000 0.000000 10.550400 32.234901 -3.901840 -0.000000 0.000000 0.000000 8.981040 6.769110 0.204755 3.063040 -1.332910 0.065517 -0.000000 0.000000 -0.000000 0.000000 0.000000 -0.000000 0.000000 -0.000000 0.000000 -13.958500 0.014889 3.108800 -79.195999 37.346699 38.750500 0.000000 -0.000000 0.000000 -0.346657 -16.843300 -12.690300 -0.000000 0.000000 -0.000000 14.003100 0.336554 1.543120 71.494400 49.810699 -9.581630 -0.000000 0.000000 0.000000 -6.585870 -19.046101 13.971600 -0.000000 0.000000 0.000000 0.000000 0.000000 0.000000 
-0.427680 23.913475 -0.170034 4.490980 -0.772396 6.017340 -14.410200 -1.139070 -1.380770 0.000000 -0.000000 0.000000 0.178551 -1.911970 -0.868346 0.000000 -0.000000 0.000000 -5.409760 -3.710890 -3.174360 -4.035920 7.938150 12.520800 0.000000 0.000000 0.000000 18.755400 39.706100 -9.262800 -0.000000 0.000000 0.000000 9.635000 11.520400 -0.496902 4.755200 -1.493810 -0.702703 -0.000000 0.000000 -0.000000 0.000000 0.000000 -0.000000 0.000000 -0.000000 0.000000 -13.693200 -0.061801 2.592160 -80.819000 40.158100 38.683899 0.000000 -0.000000 0.000000 -0.053877 -18.553801 -15.036900 -0.000000 0.000000 -0.000000 14.859100 0.392172 1.238400 71.022003 50.358200 -9.722070 -0.000000 0.000000 0.000000 -7.277420 -18.477400 14.239700 -0.000000 0.000000 0.000000 0.000000 0.000000 0.000000 
-0.407187 23.942499 0.720845 3.627240 -2.162040 5.062120 -13.192400 2.634720 1.348050 0.000000 -0.000000 0.000000 0.197628 -2.063000 -1.014360 0.000000 -0.000000 0.000000 -5.894530 -6.453070 -3.765030 -5.175490 3.595270 14.019600 0.000000 0.000000 0.000000 25.338200 47.770500 -14.635600 -0.000000 0.000000 0.000000 5.857880 13.381600 -0.724816 6.212100 -1.553870 -1.376780 -0.000000 0.000000 -0.000000 0.000000 0.000000 -0.000000 0.000000 -0.000000 0.000000 -13.755500 -0.116784 2.272700 -80.216599 42.490601 36.877998 0.000000 -0.000000 0.000000 0.725175 -18.489201 -15.962900 -0.000000 0.000000 -0.000000 16.108900 0.477242 0.687006 70.822502 50.533001 -10.011300 -0.000000 0.000000 0.000000 -8.252710 -17.645000 14.534000 -0.000000 0.000000 0.000000 0.000000 0.000000 0.000000 
-0.356797 23.975250 1.442803 2.600650 -2.493890 4.284500 -12.458200 4.583020 3.101310 0.000000 -0.000000 0.000000 0.247514 -2.279680 -0.994493 0.000000 -0.000000 0.000000 -5.601490 -7.917590 -3.869480 -6.494390 -1.686400 13.676000 0.000000 0.000000 0.000000 30.911600 52.969398 -19.744900 -0.000000 0.000000 0.000000 -0.957751 13.020300 -0.717004 7.583300 -1.593400 -1.809900 -0.000000 0.000000 -0.000000 0.000000 0.000000 -0.000000 0.000000 -0.000000 0.000000 -14.130300 -0.201419 1.904480 -78.244499 43.909599 34.147900 0.000000 -0.000000 0.000000 1.412430 -17.474701 -15.441700 -0.000000 0.000000 -0.000000 17.184200 0.573211 -0.054899 71.295898 50.708599 -11.070600 -0.000000 0.000000 0.000000 -9.004830 -17.998100 15.447700 -0.000000 0.000000 0.000000 0.000000 0.000000 0.000000 
-0.348722 24.030075 2.090583 1.426310 -3.026800 3.300160 -11.315100 7.054380 3.263400 0.000000 -0.000000 0.000000 0.379135 -2.803840 -0.790429 0.000000 -0.000000 0.000000 -4.146890 -8.433690 -3.315650 -6.916570 -8.395370 13.312700 0.000000 0.000000 0.000000 33.129101 54.386799 -22.194799 -0.000000 0.000000 0.000000 -8.665470 10.090800 -1.491810 8.589990 -1.267500 -2.011800 -0.000000 0.000000 -0.000000 0.000000 0.000000 -0.000000 0.000000 -0.000000 0.000000 -14.203200 -0.344705 0.904922 -75.181503 44.805901 29.771200 0.000000 -0.000000 0.000000 1.734560 -15.723300 -13.692700 -0.000000 0.000000 -0.000000 17.724001 0.644651 -0.676923 72.976799 51.745602 -13.572800 -0.000000 0.000000 0.000000 -9.765780 -19.480499 17.339600 -0.000000 0.000000 0.000000 0.000000 0.000000 0.000000 
